inDegrees=yes
name=ik_S48_A03_T02
DataType=double
version=3
OpenSimVersion=4.3-2021-08-27-4bc7ad9
endheader
time	pelvis_tilt	pelvis_list	pelvis_rotation	pelvis_tx	pelvis_ty	pelvis_tz	hip_flexion_r	hip_adduction_r	hip_rotation_r	knee_angle_r	knee_angle_r_beta	ankle_angle_r	subtalar_angle_r	mtp_angle_r	hip_flexion_l	hip_adduction_l	hip_rotation_l	knee_angle_l	knee_angle_l_beta	ankle_angle_l	subtalar_angle_l	mtp_angle_l	lumbar_extension	lumbar_bending	lumbar_rotation	arm_flex_r	arm_add_r	arm_rot_r	elbow_flex_r	pro_sup_r	wrist_flex_r	wrist_dev_r	arm_flex_l	arm_add_l	arm_rot_l	elbow_flex_l	pro_sup_l	wrist_flex_l	wrist_dev_l
11.85999999999984	0.8040161999313495	-0.1147237602960294	99.19485386426823	0	0.9399999999999999	0	-9.075962196573073	5.444591136165556	7.710968548923374	-3.336244762585527	-0.05822845575953398	0	0	0	18.17375978594127	-0.5802115261373901	0.703520473424404	-3.185211311007289	-0.05559242474884229	0	0	0	0	0	0	24.30945405963709	-24.3094540596371	3.700470600322763	67.14011150378805	86.29952960981231	0	0	24.30945405963709	-24.3094540596371	3.700470600322763	67.14011150378805	86.29952960956973	0	0
11.87999999999984	0.8669029398962046	-0.1088109168784887	98.90533680991574	0	0.9399999999999999	0	-9.823114207034974	5.501158614246254	7.322874743208761	-2.849830679885324	-0.04973892848834745	0	0	0	17.96801191556801	-0.5875360315800023	-1.62611739278751	-5.672693497695438	-0.09900717899125877	0	0	0	0	0	0	24.28549999759393	-24.28549999759393	3.698161316124041	67.10820402056341	86.30183889389048	0	0	24.28549999759393	-24.28549999759393	3.698161316124041	67.10820402056341	86.30183889364746	0	0
11.89999999999984	0.8876602337723658	-0.03887703645751642	98.58146026776075	0	0.9399999999999999	0	-10.5822566958469	5.532480402566106	7.084249039030587	-2.166114698128715	-0.03780583345818912	0	0	0	17.5824958357286	-0.5558521758643498	-3.313356048840382	-7.392807614601155	-0.1290288338412982	0	0	0	0	0	0	24.2933640284377	-24.2933640284377	3.699132489056065	67.12203329190062	86.30086772101112	0	0	24.2933640284377	-24.2933640284377	3.699132489056065	67.12203329190062	86.30086772076831	0	0
11.91999999999983	0.8681681513369645	0.04870935120147528	98.25439975287601	0	0.9399999999999999	0	-11.28326541948304	5.507792834463701	6.940086161779118	-1.349120050091254	-0.0235465868787632	0	0	0	17.20720137796938	-0.3216909677457804	-4.266611074256007	-7.892128156469061	-0.1377436213197353	0	0	0	0	0	0	24.29999599636222	-24.29999599636223	3.699950679596071	67.13368248149898	86.30004953051554	0	0	24.29999599636222	-24.29999599636223	3.699950679596071	67.13368248149898	86.30004953027282	0	0
11.93999999999983	0.7842165520357292	0.06868854273497139	97.90702328229835	0	0.9399999999999999	0	-11.90255155346324	5.42624383410748	6.850077165272249	-0.4142117220616189	-0.007229358350330885	0	0	0	16.95012202096495	-0.1969038871486009	-3.487097657350717	-7.519819900867056	-0.1312456164271237	0	0	0	0	0	0	24.30479517571087	-24.30479517571088	3.700544377275746	67.14213778619249	86.29945583286812	0	0	24.30479517571087	-24.30479517571088	3.700544377275746	67.14213778619249	86.29945583262547	0	0
11.95999999999983	0.7047691539284998	0.03889437167326939	97.53523043096423	0	0.9399999999999999	0	-12.48403954231734	5.291177033871119	6.504488314706094	0.5202894940677552	0.009080764735017833	0	0	0	16.55083691123143	-0.3453211662220029	-1.670043138622698	-6.92841358098039	-0.1209236289279986	0	0	0	0	0	0	24.34990792358437	-24.34990792358437	3.705368549458107	67.20966951764643	86.29463166094186	0	0	24.34990792358437	-24.34990792358437	3.705368549458107	67.20966951764643	86.29463166070015	0	0
11.97999999999983	0.5788941828852172	0.01770152692152908	97.15673948058976	0	0.9399999999999999	0	-12.95126794515635	5.092873418464769	5.890149488495823	1.90474815006527	0.03324412663991	0	0	0	16.59337274123136	-0.2755692017472846	-1.865776475794435	-6.077148431925288	-0.1060662492695068	0	0	0	0	0	0	24.35414564993305	-24.35414564993306	3.705891639821864	67.21711587592162	86.29410857060653	0	0	24.35414564993305	-24.35414564993306	3.705891639821864	67.21711587592162	86.29410857036486	0	0
11.99999999999983	0.4422119335155126	-0.01736149576990821	96.77470490023479	0	0.9399999999999999	0	-13.41712308207684	4.825659499135243	5.147562156597133	3.320796262088472	0.05795882856136439	0	0	0	15.99913106532527	-0.3964547279793793	0.8534672012187803	-6.536186071200916	-0.1140779674654485	0	0	0	0	0	0	24.39025493537281	-24.39025493537282	3.709853488371455	67.27275097706637	86.29014672226813	0	0	24.39025493537281	-24.39025493537282	3.709853488371455	67.27275097706637	86.29014672202717	0	0
